<svg width="838" height="380" viewBox="0 0 838 380" fill="none" xmlns="http://www.w3.org/2000/svg">
<path d="M72.7993 298C60.1273 298 50.2393 294.64 43.1353 287.92C36.2233 281.2 32.7673 271.888 32.7673 259.984V133.552C32.7673 122.032 36.2233 113.008 43.1353 106.48C50.0473 99.76 59.6473 96.4 71.9353 96.4H139.615C159.967 96.4 175.711 101.2 186.847 110.8C197.983 120.4 203.551 133.936 203.551 151.408C203.551 161.008 200.959 169.552 195.775 177.04C190.591 184.528 183.679 190.192 175.039 194.032V194.32C184.831 197.968 192.607 203.728 198.367 211.6C204.127 219.472 207.007 228.496 207.007 238.672C207.007 257.104 201.247 271.6 189.727 282.16C178.399 292.72 162.847 298 143.071 298H72.7993ZM141.055 183.952C151.999 183.952 160.543 181.072 166.687 175.312C173.023 169.552 176.191 161.584 176.191 151.408C176.191 140.464 173.023 132.208 166.687 126.64C160.543 120.88 151.519 118 139.615 118H73.9513C69.7273 118 66.2713 119.44 63.5833 122.32C61.0873 125.2 59.8393 129.04 59.8393 133.84V183.952H141.055ZM141.055 276.112C153.727 276.112 163.327 273.04 169.855 266.896C176.383 260.56 179.647 251.248 179.647 238.96C179.647 228.4 176.191 220.24 169.279 214.48C162.367 208.528 152.863 205.552 140.767 205.552H59.8393V260.56C59.8393 265.168 61.0873 268.912 63.5833 271.792C66.2713 274.672 69.7273 276.112 73.9513 276.112H141.055ZM282.612 298C270.132 298 260.34 294.64 253.236 287.92C246.132 281.2 242.58 271.888 242.58 259.984V133.552C242.58 122.032 246.036 113.008 252.948 106.48C259.86 99.76 269.46 96.4 281.748 96.4H371.028C380.052 96.4 384.564 100.144 384.564 107.632C384.564 110.896 383.316 113.488 380.82 115.408C378.516 117.328 375.252 118.288 371.028 118.288H284.052C279.636 118.288 276.084 119.728 273.396 122.608C270.9 125.488 269.652 129.328 269.652 134.128V183.952H349.14C358.164 183.952 362.676 187.696 362.676 195.184C362.676 198.64 361.428 201.328 358.932 203.248C356.628 205.168 353.364 206.128 349.14 206.128H269.652V260.272C269.652 265.072 270.9 268.912 273.396 271.792C276.084 274.672 279.636 276.112 284.052 276.112H377.364C381.78 276.112 385.14 277.072 387.444 278.992C389.748 280.72 390.9 283.408 390.9 287.056C390.9 290.512 389.652 293.2 387.156 295.12C384.852 297.04 381.588 298 377.364 298H282.612ZM438.613 300.88C434.389 300.88 431.029 299.728 428.533 297.424C426.229 294.928 425.077 291.568 425.077 287.344V178.768C425.077 152.08 432.661 131.248 447.829 116.272C462.997 101.104 483.925 93.52 510.613 93.52C528.277 93.52 543.541 96.976 556.405 103.888C569.461 110.608 579.349 120.4 586.069 133.264C592.981 146.128 596.437 161.296 596.437 178.768V287.344C596.437 291.568 595.189 294.928 592.693 297.424C590.197 299.728 586.837 300.88 582.613 300.88C578.581 300.88 575.317 299.728 572.821 297.424C570.325 294.928 569.077 291.568 569.077 287.344V228.592H452.149V287.344C452.149 291.568 450.901 294.928 448.405 297.424C446.101 299.728 442.837 300.88 438.613 300.88ZM569.077 206.704V177.904C569.077 157.936 564.085 142.672 554.101 132.112C544.117 121.36 529.621 115.984 510.613 115.984C491.605 115.984 477.109 121.264 467.125 131.824C457.141 142.192 452.149 157.552 452.149 177.904V206.704H569.077ZM648.138 300.88C643.914 300.88 640.554 299.728 638.058 297.424C635.754 294.928 634.602 291.568 634.602 287.344V173.008C634.602 156.688 638.058 142.576 644.97 130.672C651.882 118.768 661.77 109.648 674.634 103.312C687.69 96.784 703.05 93.52 720.714 93.52C738.378 93.52 753.642 96.784 766.506 103.312C779.562 109.648 789.546 118.768 796.458 130.672C803.37 142.576 806.826 156.688 806.826 173.008V287.344C806.826 291.568 805.578 294.928 803.082 297.424C800.778 299.728 797.514 300.88 793.29 300.88C789.066 300.88 785.706 299.728 783.21 297.424C780.714 294.928 779.466 291.568 779.466 287.344V172.144C779.466 154.288 774.282 140.464 763.914 130.672C753.738 120.88 739.338 115.984 720.714 115.984C702.282 115.984 687.882 120.976 677.514 130.96C667.146 140.752 661.962 154.48 661.962 172.144V287.344C661.962 291.568 660.714 294.928 658.218 297.424C655.722 299.728 652.362 300.88 648.138 300.88Z" fill="black"/>
</svg>
